<svg xmlns="http://www.w3.org/2000/svg" viewBox="0 0 144.1 47.2" style="enable-background:new 0 0 144.1 47.2" xml:space="preserve"><path d="M68.4 31.9c-.3 1.3-.8 2.6-1.5 3.7s-1.8 2-3.1 2.8c-1.3.7-3 1.1-5.1 1.1-2.6 0-4.8-.7-6.5-2-1.7-1.4-2.9-3.1-3.5-5.2l6.6-2.2c.2.8.6 1.5 1.1 2 .5.5 1.2.7 2 .7 1.2 0 2-.4 2.4-1.3.4-.8.6-1.9.6-3.3V7.8h7.5v20.3c-.1 1.2-.2 2.5-.5 3.8zM75 38.6V7.8h7.5v30.9H75zM88.7 38.6v-6.5L102.5 14H89V7.8h22.3v6L97.2 32.2h14.5v6.5h-23zM136.2 38.6l-11.6-20.2h-.1l.2 20.2h-6.8V7.8h7.9L137.4 28h.1l-.2-20.2h6.8v30.9h-7.9z"/><path d="M26.4 9.4C21.6 6.2 15 6.7 10.8 10.9c-4.2 4.2-4.7 10.8-1.5 15.6l2.6-2.7c-1.8-3.3-1.4-7.6 1.4-10.3 2.8-2.8 7.1-3.2 10.3-1.4l2.8-2.7zm4.4 21.4L19.6 42.1 17 44.7l2.6 2.6 13.8-13.8c3-3 4.8-6.7 5.4-10.6.3-1.8.3-3.5.2-5.3-.2-1.4-.5-2.9-.9-4.2l-3 3-3.3 3.3-6.2 6.2-6.1 6.1-2.5 2.3-2.6 2.6-2.6-2.6 2.6-2.6 2.6-2.6 2.6-2.6 3.5-3.5 5-5 3-3 2.8-2.8 2.7-2.7c-.6-1.1-1.3-2.1-2.2-3l-2.6 2.6-2.6 2.6-2.6 2.6-2.6 2.6-7 7.1-2.6 2.6-2.6 2.6-2.6 2.6-2.6 2.6L9.2 37l2.6 2.6 2.6 2.6 2.6-2.6 2.6-2.6 8.7-8.7 7.1-7.1c-.4 3.4-1.9 6.9-4.6 9.6zM8.3 8.3c5.6-5.6 14.5-6.1 20.8-1.5l2.6-2.6C24-1.9 12.8-1.3 5.7 5.7c-7.1 7.1-7.6 18.3-1.5 26l2.6-2.6C2.1 22.8 2.7 13.9 8.3 8.3z" style="fill-rule:evenodd;clip-rule:evenodd;fill:#e6011a"/></svg>